<mxfile host="65bd71144e" pages="3">
    <diagram id="6dXKoRwkiL6QKlLexK6N" name="*売上情報管理_参照">
        <mxGraphModel dx="1214" dy="339" grid="0" gridSize="10" guides="1" tooltips="1" connect="1" arrows="1" fold="1" page="0" pageScale="1" pageWidth="827" pageHeight="1169" math="0" shadow="0">
            <root>
                <mxCell id="0"/>
                <mxCell id="1" parent="0"/>
                <mxCell id="2" value="管理者&lt;br&gt;" style="shape=umlActor;verticalLabelPosition=bottom;verticalAlign=top;html=1;" parent="1" vertex="1">
                    <mxGeometry x="-70" y="280" width="30" height="60" as="geometry"/>
                </mxCell>
                <mxCell id="3" value="ログイン済&lt;br&gt;ホーム画面" style="shape=umlBoundary;whiteSpace=wrap;html=1;fillColor=#dae8fc;strokeColor=#6c8ebf;" parent="1" vertex="1">
                    <mxGeometry x="120" y="120" width="100" height="80" as="geometry"/>
                </mxCell>
                <mxCell id="4" value="売上情報&lt;br&gt;一覧画面" style="shape=umlBoundary;whiteSpace=wrap;html=1;fillColor=#dae8fc;strokeColor=#6c8ebf;" parent="1" vertex="1">
                    <mxGeometry x="120" y="280" width="100" height="80" as="geometry"/>
                </mxCell>
                <mxCell id="6" value="売上情報&lt;br&gt;を取得する" style="ellipse;shape=umlControl;whiteSpace=wrap;html=1;fillColor=#f8cecc;strokeColor=#b85450;" parent="1" vertex="1">
                    <mxGeometry x="440" y="110" width="80" height="90" as="geometry"/>
                </mxCell>
                <mxCell id="7" value="売上情報&lt;br&gt;モデル" style="ellipse;shape=umlEntity;whiteSpace=wrap;html=1;fillColor=#d5e8d4;strokeColor=#82b366;" parent="1" vertex="1">
                    <mxGeometry x="727" y="407" width="80" height="80" as="geometry"/>
                </mxCell>
                <mxCell id="8" value="表示する" style="ellipse;shape=umlControl;whiteSpace=wrap;html=1;fillColor=#f8cecc;strokeColor=#b85450;" parent="1" vertex="1">
                    <mxGeometry x="440" y="280" width="70" height="80" as="geometry"/>
                </mxCell>
                <mxCell id="9" value="" style="endArrow=classic;html=1;rounded=0;" parent="1" edge="1">
                    <mxGeometry width="50" height="50" relative="1" as="geometry">
                        <mxPoint x="235" y="319.28999999999996" as="sourcePoint"/>
                        <mxPoint x="430" y="319" as="targetPoint"/>
                    </mxGeometry>
                </mxCell>
                <mxCell id="11" value="" style="endArrow=classic;html=1;rounded=0;" parent="1" edge="1">
                    <mxGeometry width="50" height="50" relative="1" as="geometry">
                        <mxPoint x="-30" y="320" as="sourcePoint"/>
                        <mxPoint x="110" y="160" as="targetPoint"/>
                    </mxGeometry>
                </mxCell>
                <mxCell id="25" value="「売上情報マスタ」を押下" style="edgeLabel;html=1;align=center;verticalAlign=middle;resizable=0;points=[];" parent="11" vertex="1" connectable="0">
                    <mxGeometry x="0.1587" y="-2" relative="1" as="geometry">
                        <mxPoint as="offset"/>
                    </mxGeometry>
                </mxCell>
                <mxCell id="12" value="" style="endArrow=classic;html=1;rounded=0;" parent="1" edge="1">
                    <mxGeometry width="50" height="50" relative="1" as="geometry">
                        <mxPoint x="-30" y="320" as="sourcePoint"/>
                        <mxPoint x="110" y="480" as="targetPoint"/>
                    </mxGeometry>
                </mxCell>
                <mxCell id="13" value="" style="endArrow=classic;html=1;rounded=0;" parent="1" edge="1">
                    <mxGeometry width="50" height="50" relative="1" as="geometry">
                        <mxPoint x="-30" y="320" as="sourcePoint"/>
                        <mxPoint x="110" y="320" as="targetPoint"/>
                    </mxGeometry>
                </mxCell>
                <mxCell id="26" value="売上情報を選択" style="edgeLabel;html=1;align=center;verticalAlign=middle;resizable=0;points=[];" parent="13" vertex="1" connectable="0">
                    <mxGeometry x="0.3076" y="1" relative="1" as="geometry">
                        <mxPoint x="-22" y="1" as="offset"/>
                    </mxGeometry>
                </mxCell>
                <mxCell id="14" value="" style="endArrow=classic;html=1;rounded=0;startArrow=classic;startFill=1;" parent="1" edge="1">
                    <mxGeometry width="50" height="50" relative="1" as="geometry">
                        <mxPoint x="534" y="172" as="sourcePoint"/>
                        <mxPoint x="717" y="261" as="targetPoint"/>
                    </mxGeometry>
                </mxCell>
                <mxCell id="15" value="" style="endArrow=classic;html=1;rounded=0;" parent="1" edge="1">
                    <mxGeometry width="50" height="50" relative="1" as="geometry">
                        <mxPoint x="230" y="159.57999999999993" as="sourcePoint"/>
                        <mxPoint x="425" y="159.28999999999996" as="targetPoint"/>
                    </mxGeometry>
                </mxCell>
                <mxCell id="16" value="" style="endArrow=classic;html=1;rounded=0;" parent="1" edge="1">
                    <mxGeometry width="50" height="50" relative="1" as="geometry">
                        <mxPoint x="430" y="170" as="sourcePoint"/>
                        <mxPoint x="240" y="310" as="targetPoint"/>
                    </mxGeometry>
                </mxCell>
                <mxCell id="17" value="" style="endArrow=classic;html=1;rounded=0;" parent="1" edge="1">
                    <mxGeometry width="50" height="50" relative="1" as="geometry">
                        <mxPoint x="430" y="330" as="sourcePoint"/>
                        <mxPoint x="240" y="470" as="targetPoint"/>
                    </mxGeometry>
                </mxCell>
                <mxCell id="23" value="詳細画面" style="shape=umlBoundary;whiteSpace=wrap;html=1;fillColor=#dae8fc;strokeColor=#6c8ebf;" parent="1" vertex="1">
                    <mxGeometry x="120" y="440" width="100" height="80" as="geometry"/>
                </mxCell>
                <mxCell id="24" value="売上情報管理_登録" style="rounded=0;whiteSpace=wrap;html=1;fillColor=#ffe6cc;strokeColor=#d79b00;fontStyle=1;fontSize=18;" parent="1" vertex="1">
                    <mxGeometry x="-110" y="80" width="190" height="60" as="geometry"/>
                </mxCell>
                <mxCell id="pvjX0vMnP473XmivSzVV-26" value="商品情報&lt;br&gt;モデル" style="ellipse;shape=umlEntity;whiteSpace=wrap;html=1;fillColor=#d5e8d4;strokeColor=#82b366;" vertex="1" parent="1">
                    <mxGeometry x="727" y="314" width="80" height="80" as="geometry"/>
                </mxCell>
                <mxCell id="6gAZNGbk-TdiE4PoCEPk-26" value="店舗情報&lt;br&gt;モデル" style="ellipse;shape=umlEntity;whiteSpace=wrap;html=1;fillColor=#d5e8d4;strokeColor=#82b366;" vertex="1" parent="1">
                    <mxGeometry x="727" y="221" width="80" height="80" as="geometry"/>
                </mxCell>
                <mxCell id="6gAZNGbk-TdiE4PoCEPk-27" value="従業員情報&lt;br&gt;モデル" style="ellipse;shape=umlEntity;whiteSpace=wrap;html=1;fillColor=#d5e8d4;strokeColor=#82b366;" vertex="1" parent="1">
                    <mxGeometry x="727" y="128" width="80" height="80" as="geometry"/>
                </mxCell>
                <mxCell id="6gAZNGbk-TdiE4PoCEPk-28" value="" style="endArrow=classic;html=1;rounded=0;startArrow=classic;startFill=1;" edge="1" parent="1">
                    <mxGeometry width="50" height="50" relative="1" as="geometry">
                        <mxPoint x="530" y="157" as="sourcePoint"/>
                        <mxPoint x="714" y="170" as="targetPoint"/>
                    </mxGeometry>
                </mxCell>
                <mxCell id="6gAZNGbk-TdiE4PoCEPk-29" value="" style="endArrow=classic;html=1;rounded=0;startArrow=classic;startFill=1;" edge="1" parent="1">
                    <mxGeometry width="50" height="50" relative="1" as="geometry">
                        <mxPoint x="526" y="184" as="sourcePoint"/>
                        <mxPoint x="718" y="346" as="targetPoint"/>
                    </mxGeometry>
                </mxCell>
                <mxCell id="6gAZNGbk-TdiE4PoCEPk-30" value="" style="endArrow=classic;html=1;rounded=0;startArrow=classic;startFill=1;" edge="1" parent="1">
                    <mxGeometry width="50" height="50" relative="1" as="geometry">
                        <mxPoint x="518" y="197" as="sourcePoint"/>
                        <mxPoint x="717" y="447" as="targetPoint"/>
                    </mxGeometry>
                </mxCell>
            </root>
        </mxGraphModel>
    </diagram>
    <diagram id="JnTztatlLzvQG0zcR0n4" name="*売上情報管理_編集">
        <mxGraphModel dx="1214" dy="339" grid="0" gridSize="10" guides="1" tooltips="1" connect="1" arrows="1" fold="1" page="0" pageScale="1" pageWidth="827" pageHeight="1169" math="0" shadow="0">
            <root>
                <mxCell id="ClaozoiLsZOpISAz2pXM-0"/>
                <mxCell id="ClaozoiLsZOpISAz2pXM-1" parent="ClaozoiLsZOpISAz2pXM-0"/>
                <mxCell id="gx6NXgfO0Ngl4NM3lM2A-1" value="ログイン済&lt;br&gt;ホーム画面" style="shape=umlBoundary;whiteSpace=wrap;html=1;fillColor=#dae8fc;strokeColor=#6c8ebf;" parent="ClaozoiLsZOpISAz2pXM-1" vertex="1">
                    <mxGeometry x="120" y="120" width="100" height="80" as="geometry"/>
                </mxCell>
                <mxCell id="gx6NXgfO0Ngl4NM3lM2A-2" value="売上情報&lt;br&gt;一覧画面" style="shape=umlBoundary;whiteSpace=wrap;html=1;fillColor=#dae8fc;strokeColor=#6c8ebf;" parent="ClaozoiLsZOpISAz2pXM-1" vertex="1">
                    <mxGeometry x="120" y="280" width="100" height="80" as="geometry"/>
                </mxCell>
                <mxCell id="gx6NXgfO0Ngl4NM3lM2A-3" value="売上情報&lt;br&gt;を取得する" style="ellipse;shape=umlControl;whiteSpace=wrap;html=1;fillColor=#f8cecc;strokeColor=#b85450;" parent="ClaozoiLsZOpISAz2pXM-1" vertex="1">
                    <mxGeometry x="440" y="110" width="80" height="90" as="geometry"/>
                </mxCell>
                <mxCell id="gx6NXgfO0Ngl4NM3lM2A-5" value="表示する" style="ellipse;shape=umlControl;whiteSpace=wrap;html=1;fillColor=#f8cecc;strokeColor=#b85450;" parent="ClaozoiLsZOpISAz2pXM-1" vertex="1">
                    <mxGeometry x="440" y="280" width="70" height="80" as="geometry"/>
                </mxCell>
                <mxCell id="gx6NXgfO0Ngl4NM3lM2A-6" value="" style="endArrow=classic;html=1;rounded=0;" parent="ClaozoiLsZOpISAz2pXM-1" edge="1">
                    <mxGeometry width="50" height="50" relative="1" as="geometry">
                        <mxPoint x="235" y="319.28999999999996" as="sourcePoint"/>
                        <mxPoint x="430" y="319" as="targetPoint"/>
                    </mxGeometry>
                </mxCell>
                <mxCell id="gx6NXgfO0Ngl4NM3lM2A-12" value="" style="endArrow=classic;html=1;rounded=0;" parent="ClaozoiLsZOpISAz2pXM-1" edge="1">
                    <mxGeometry width="50" height="50" relative="1" as="geometry">
                        <mxPoint x="230" y="159.57999999999993" as="sourcePoint"/>
                        <mxPoint x="425" y="159.28999999999996" as="targetPoint"/>
                    </mxGeometry>
                </mxCell>
                <mxCell id="gx6NXgfO0Ngl4NM3lM2A-13" value="" style="endArrow=classic;html=1;rounded=0;" parent="ClaozoiLsZOpISAz2pXM-1" edge="1">
                    <mxGeometry width="50" height="50" relative="1" as="geometry">
                        <mxPoint x="430" y="170" as="sourcePoint"/>
                        <mxPoint x="240" y="310" as="targetPoint"/>
                    </mxGeometry>
                </mxCell>
                <mxCell id="gx6NXgfO0Ngl4NM3lM2A-14" value="" style="endArrow=classic;html=1;rounded=0;startArrow=classic;startFill=1;" parent="ClaozoiLsZOpISAz2pXM-1" edge="1">
                    <mxGeometry width="50" height="50" relative="1" as="geometry">
                        <mxPoint x="430" y="330" as="sourcePoint"/>
                        <mxPoint x="240" y="480" as="targetPoint"/>
                    </mxGeometry>
                </mxCell>
                <mxCell id="gx6NXgfO0Ngl4NM3lM2A-15" value="詳細画面" style="shape=umlBoundary;whiteSpace=wrap;html=1;fillColor=#dae8fc;strokeColor=#6c8ebf;" parent="ClaozoiLsZOpISAz2pXM-1" vertex="1">
                    <mxGeometry x="120" y="440" width="100" height="80" as="geometry"/>
                </mxCell>
                <mxCell id="rAo2Jz_jOwV9_K-vaBnR-0" value="編集画面" style="shape=umlBoundary;whiteSpace=wrap;html=1;fillColor=#dae8fc;strokeColor=#6c8ebf;" parent="ClaozoiLsZOpISAz2pXM-1" vertex="1">
                    <mxGeometry x="120" y="600" width="100" height="80" as="geometry"/>
                </mxCell>
                <mxCell id="rAo2Jz_jOwV9_K-vaBnR-1" value="" style="endArrow=classic;html=1;rounded=0;" parent="ClaozoiLsZOpISAz2pXM-1" edge="1">
                    <mxGeometry width="50" height="50" relative="1" as="geometry">
                        <mxPoint x="430" y="340" as="sourcePoint"/>
                        <mxPoint x="240" y="630" as="targetPoint"/>
                    </mxGeometry>
                </mxCell>
                <mxCell id="rAo2Jz_jOwV9_K-vaBnR-2" value="" style="endArrow=classic;html=1;rounded=0;" parent="ClaozoiLsZOpISAz2pXM-1" edge="1">
                    <mxGeometry width="50" height="50" relative="1" as="geometry">
                        <mxPoint x="-30" y="320" as="sourcePoint"/>
                        <mxPoint x="110" y="640" as="targetPoint"/>
                    </mxGeometry>
                </mxCell>
                <mxCell id="u0TdL2q2LAMC2MeznFi9-2" value="売上情報を入力" style="edgeLabel;html=1;align=center;verticalAlign=middle;resizable=0;points=[];" parent="rAo2Jz_jOwV9_K-vaBnR-2" vertex="1" connectable="0">
                    <mxGeometry x="0.2416" y="1" relative="1" as="geometry">
                        <mxPoint as="offset"/>
                    </mxGeometry>
                </mxCell>
                <mxCell id="rAo2Jz_jOwV9_K-vaBnR-3" value="入力データを検証する" style="ellipse;shape=umlControl;whiteSpace=wrap;html=1;fillColor=#f8cecc;strokeColor=#b85450;" parent="ClaozoiLsZOpISAz2pXM-1" vertex="1">
                    <mxGeometry x="440" y="600" width="70" height="80" as="geometry"/>
                </mxCell>
                <mxCell id="rAo2Jz_jOwV9_K-vaBnR-4" value="更新する" style="ellipse;shape=umlControl;whiteSpace=wrap;html=1;fillColor=#f8cecc;strokeColor=#b85450;" parent="ClaozoiLsZOpISAz2pXM-1" vertex="1">
                    <mxGeometry x="440" y="440" width="70" height="80" as="geometry"/>
                </mxCell>
                <mxCell id="rAo2Jz_jOwV9_K-vaBnR-5" value="" style="endArrow=classic;html=1;rounded=0;startArrow=classic;startFill=1;" parent="ClaozoiLsZOpISAz2pXM-1" edge="1">
                    <mxGeometry width="50" height="50" relative="1" as="geometry">
                        <mxPoint x="240" y="639.7" as="sourcePoint"/>
                        <mxPoint x="435" y="639.4100000000001" as="targetPoint"/>
                    </mxGeometry>
                </mxCell>
                <mxCell id="u0TdL2q2LAMC2MeznFi9-11" value="入力エラー時は&lt;br&gt;エラーメッセージを表示" style="edgeLabel;html=1;align=center;verticalAlign=middle;resizable=0;points=[];" parent="rAo2Jz_jOwV9_K-vaBnR-5" vertex="1" connectable="0">
                    <mxGeometry x="0.1555" y="-3" relative="1" as="geometry">
                        <mxPoint x="-13" y="-3" as="offset"/>
                    </mxGeometry>
                </mxCell>
                <mxCell id="rAo2Jz_jOwV9_K-vaBnR-6" value="" style="endArrow=classic;html=1;rounded=0;" parent="ClaozoiLsZOpISAz2pXM-1" edge="1">
                    <mxGeometry width="50" height="50" relative="1" as="geometry">
                        <mxPoint x="474.5" y="590" as="sourcePoint"/>
                        <mxPoint x="474.5" y="530" as="targetPoint"/>
                    </mxGeometry>
                </mxCell>
                <mxCell id="rAo2Jz_jOwV9_K-vaBnR-7" value="" style="endArrow=classic;html=1;rounded=0;startArrow=classic;startFill=1;" parent="ClaozoiLsZOpISAz2pXM-1" edge="1">
                    <mxGeometry width="50" height="50" relative="1" as="geometry">
                        <mxPoint x="520" y="480" as="sourcePoint"/>
                        <mxPoint x="710" y="450" as="targetPoint"/>
                    </mxGeometry>
                </mxCell>
                <mxCell id="u0TdL2q2LAMC2MeznFi9-0" value="売上情報を更新" style="edgeLabel;html=1;align=center;verticalAlign=middle;resizable=0;points=[];" parent="rAo2Jz_jOwV9_K-vaBnR-7" vertex="1" connectable="0">
                    <mxGeometry x="0.1291" y="6" relative="1" as="geometry">
                        <mxPoint as="offset"/>
                    </mxGeometry>
                </mxCell>
                <mxCell id="rAo2Jz_jOwV9_K-vaBnR-8" value="" style="endArrow=classic;html=1;rounded=0;jumpStyle=arc;" parent="ClaozoiLsZOpISAz2pXM-1" edge="1">
                    <mxGeometry width="50" height="50" relative="1" as="geometry">
                        <mxPoint x="440" y="179.9999999999999" as="sourcePoint"/>
                        <mxPoint x="240" y="470" as="targetPoint"/>
                    </mxGeometry>
                </mxCell>
                <mxCell id="Lp-UoPlOY43ExgynIh6E-0" value="売上情報管理_編集" style="rounded=0;whiteSpace=wrap;html=1;fillColor=#ffe6cc;strokeColor=#d79b00;fontStyle=1;fontSize=18;" parent="ClaozoiLsZOpISAz2pXM-1" vertex="1">
                    <mxGeometry x="-133" y="66" width="190" height="60" as="geometry"/>
                </mxCell>
                <mxCell id="X-bZCnbmL0jtdzTY1LeG-0" value="管理者&lt;br&gt;" style="shape=umlActor;verticalLabelPosition=bottom;verticalAlign=top;html=1;" parent="ClaozoiLsZOpISAz2pXM-1" vertex="1">
                    <mxGeometry x="-70" y="280" width="30" height="60" as="geometry"/>
                </mxCell>
                <mxCell id="X-bZCnbmL0jtdzTY1LeG-1" value="" style="endArrow=classic;html=1;rounded=0;" parent="ClaozoiLsZOpISAz2pXM-1" edge="1">
                    <mxGeometry width="50" height="50" relative="1" as="geometry">
                        <mxPoint x="-30" y="320" as="sourcePoint"/>
                        <mxPoint x="110" y="160" as="targetPoint"/>
                    </mxGeometry>
                </mxCell>
                <mxCell id="X-bZCnbmL0jtdzTY1LeG-2" value="「売上情報マスタ」を押下" style="edgeLabel;html=1;align=center;verticalAlign=middle;resizable=0;points=[];" parent="X-bZCnbmL0jtdzTY1LeG-1" vertex="1" connectable="0">
                    <mxGeometry x="0.1587" y="-2" relative="1" as="geometry">
                        <mxPoint as="offset"/>
                    </mxGeometry>
                </mxCell>
                <mxCell id="X-bZCnbmL0jtdzTY1LeG-3" value="" style="endArrow=classic;html=1;rounded=0;" parent="ClaozoiLsZOpISAz2pXM-1" edge="1">
                    <mxGeometry width="50" height="50" relative="1" as="geometry">
                        <mxPoint x="-30" y="320" as="sourcePoint"/>
                        <mxPoint x="110" y="480" as="targetPoint"/>
                    </mxGeometry>
                </mxCell>
                <mxCell id="u0TdL2q2LAMC2MeznFi9-1" value="「編集」を押下" style="edgeLabel;html=1;align=center;verticalAlign=middle;resizable=0;points=[];" parent="X-bZCnbmL0jtdzTY1LeG-3" vertex="1" connectable="0">
                    <mxGeometry x="0.2129" y="-2" relative="1" as="geometry">
                        <mxPoint as="offset"/>
                    </mxGeometry>
                </mxCell>
                <mxCell id="X-bZCnbmL0jtdzTY1LeG-4" value="" style="endArrow=classic;html=1;rounded=0;" parent="ClaozoiLsZOpISAz2pXM-1" edge="1">
                    <mxGeometry width="50" height="50" relative="1" as="geometry">
                        <mxPoint x="-30" y="320" as="sourcePoint"/>
                        <mxPoint x="110" y="320" as="targetPoint"/>
                    </mxGeometry>
                </mxCell>
                <mxCell id="X-bZCnbmL0jtdzTY1LeG-5" value="売上情報を選択" style="edgeLabel;html=1;align=center;verticalAlign=middle;resizable=0;points=[];" parent="X-bZCnbmL0jtdzTY1LeG-4" vertex="1" connectable="0">
                    <mxGeometry x="0.3076" y="1" relative="1" as="geometry">
                        <mxPoint x="-22" y="1" as="offset"/>
                    </mxGeometry>
                </mxCell>
                <mxCell id="u0TdL2q2LAMC2MeznFi9-10" value="" style="curved=1;endArrow=classic;html=1;rounded=0;" parent="ClaozoiLsZOpISAz2pXM-1" edge="1">
                    <mxGeometry width="50" height="50" relative="1" as="geometry">
                        <mxPoint x="520" y="460" as="sourcePoint"/>
                        <mxPoint x="520" y="170" as="targetPoint"/>
                        <Array as="points">
                            <mxPoint x="600" y="250"/>
                        </Array>
                    </mxGeometry>
                </mxCell>
                <mxCell id="Rb1_2ahgpqf1ObxYSjOv-0" value="売上情報&lt;br&gt;モデル" style="ellipse;shape=umlEntity;whiteSpace=wrap;html=1;fillColor=#d5e8d4;strokeColor=#82b366;" vertex="1" parent="ClaozoiLsZOpISAz2pXM-1">
                    <mxGeometry x="727" y="407" width="80" height="80" as="geometry"/>
                </mxCell>
                <mxCell id="Rb1_2ahgpqf1ObxYSjOv-1" value="" style="endArrow=classic;html=1;rounded=0;startArrow=classic;startFill=1;" edge="1" parent="ClaozoiLsZOpISAz2pXM-1">
                    <mxGeometry width="50" height="50" relative="1" as="geometry">
                        <mxPoint x="534" y="172" as="sourcePoint"/>
                        <mxPoint x="717" y="261" as="targetPoint"/>
                    </mxGeometry>
                </mxCell>
                <mxCell id="Rb1_2ahgpqf1ObxYSjOv-2" value="商品情報&lt;br&gt;モデル" style="ellipse;shape=umlEntity;whiteSpace=wrap;html=1;fillColor=#d5e8d4;strokeColor=#82b366;" vertex="1" parent="ClaozoiLsZOpISAz2pXM-1">
                    <mxGeometry x="727" y="314" width="80" height="80" as="geometry"/>
                </mxCell>
                <mxCell id="Rb1_2ahgpqf1ObxYSjOv-3" value="店舗情報&lt;br&gt;モデル" style="ellipse;shape=umlEntity;whiteSpace=wrap;html=1;fillColor=#d5e8d4;strokeColor=#82b366;" vertex="1" parent="ClaozoiLsZOpISAz2pXM-1">
                    <mxGeometry x="727" y="221" width="80" height="80" as="geometry"/>
                </mxCell>
                <mxCell id="Rb1_2ahgpqf1ObxYSjOv-4" value="従業員情報&lt;br&gt;モデル" style="ellipse;shape=umlEntity;whiteSpace=wrap;html=1;fillColor=#d5e8d4;strokeColor=#82b366;" vertex="1" parent="ClaozoiLsZOpISAz2pXM-1">
                    <mxGeometry x="727" y="128" width="80" height="80" as="geometry"/>
                </mxCell>
                <mxCell id="Rb1_2ahgpqf1ObxYSjOv-5" value="" style="endArrow=classic;html=1;rounded=0;startArrow=classic;startFill=1;" edge="1" parent="ClaozoiLsZOpISAz2pXM-1">
                    <mxGeometry width="50" height="50" relative="1" as="geometry">
                        <mxPoint x="530" y="157" as="sourcePoint"/>
                        <mxPoint x="714" y="170" as="targetPoint"/>
                    </mxGeometry>
                </mxCell>
                <mxCell id="Rb1_2ahgpqf1ObxYSjOv-6" value="" style="endArrow=classic;html=1;rounded=0;startArrow=classic;startFill=1;" edge="1" parent="ClaozoiLsZOpISAz2pXM-1">
                    <mxGeometry width="50" height="50" relative="1" as="geometry">
                        <mxPoint x="526" y="184" as="sourcePoint"/>
                        <mxPoint x="718" y="346" as="targetPoint"/>
                    </mxGeometry>
                </mxCell>
                <mxCell id="Rb1_2ahgpqf1ObxYSjOv-7" value="" style="endArrow=classic;html=1;rounded=0;startArrow=classic;startFill=1;" edge="1" parent="ClaozoiLsZOpISAz2pXM-1">
                    <mxGeometry width="50" height="50" relative="1" as="geometry">
                        <mxPoint x="518" y="197" as="sourcePoint"/>
                        <mxPoint x="717" y="447" as="targetPoint"/>
                    </mxGeometry>
                </mxCell>
            </root>
        </mxGraphModel>
    </diagram>
    <diagram id="NGaApFWOfqZ_2WpzOdTp" name="*売上情報管理_削除">
        <mxGraphModel dx="1214" dy="339" grid="0" gridSize="10" guides="1" tooltips="1" connect="1" arrows="1" fold="1" page="0" pageScale="1" pageWidth="827" pageHeight="1169" math="0" shadow="0">
            <root>
                <mxCell id="v6kbZBv9k20OrkSfWxrl-0"/>
                <mxCell id="v6kbZBv9k20OrkSfWxrl-1" parent="v6kbZBv9k20OrkSfWxrl-0"/>
                <mxCell id="OnPWleWcY83iw-MTE333-1" value="ログイン済&lt;br&gt;ホーム画面" style="shape=umlBoundary;whiteSpace=wrap;html=1;fillColor=#dae8fc;strokeColor=#6c8ebf;" parent="v6kbZBv9k20OrkSfWxrl-1" vertex="1">
                    <mxGeometry x="120" y="120" width="100" height="80" as="geometry"/>
                </mxCell>
                <mxCell id="OnPWleWcY83iw-MTE333-2" value="売上情報&lt;br&gt;一覧画面" style="shape=umlBoundary;whiteSpace=wrap;html=1;fillColor=#dae8fc;strokeColor=#6c8ebf;" parent="v6kbZBv9k20OrkSfWxrl-1" vertex="1">
                    <mxGeometry x="120" y="280" width="100" height="80" as="geometry"/>
                </mxCell>
                <mxCell id="OnPWleWcY83iw-MTE333-3" value="売上情報&lt;br&gt;を取得する" style="ellipse;shape=umlControl;whiteSpace=wrap;html=1;fillColor=#f8cecc;strokeColor=#b85450;" parent="v6kbZBv9k20OrkSfWxrl-1" vertex="1">
                    <mxGeometry x="440" y="110" width="80" height="90" as="geometry"/>
                </mxCell>
                <mxCell id="OnPWleWcY83iw-MTE333-5" value="表示する" style="ellipse;shape=umlControl;whiteSpace=wrap;html=1;fillColor=#f8cecc;strokeColor=#b85450;" parent="v6kbZBv9k20OrkSfWxrl-1" vertex="1">
                    <mxGeometry x="440" y="280" width="70" height="80" as="geometry"/>
                </mxCell>
                <mxCell id="OnPWleWcY83iw-MTE333-6" value="" style="endArrow=classic;html=1;rounded=0;" parent="v6kbZBv9k20OrkSfWxrl-1" edge="1">
                    <mxGeometry width="50" height="50" relative="1" as="geometry">
                        <mxPoint x="235" y="319.28999999999996" as="sourcePoint"/>
                        <mxPoint x="430" y="319" as="targetPoint"/>
                    </mxGeometry>
                </mxCell>
                <mxCell id="OnPWleWcY83iw-MTE333-12" value="" style="endArrow=classic;html=1;rounded=0;" parent="v6kbZBv9k20OrkSfWxrl-1" edge="1">
                    <mxGeometry width="50" height="50" relative="1" as="geometry">
                        <mxPoint x="230" y="159.57999999999993" as="sourcePoint"/>
                        <mxPoint x="425" y="159.28999999999996" as="targetPoint"/>
                    </mxGeometry>
                </mxCell>
                <mxCell id="OnPWleWcY83iw-MTE333-13" value="" style="endArrow=classic;html=1;rounded=0;" parent="v6kbZBv9k20OrkSfWxrl-1" edge="1">
                    <mxGeometry width="50" height="50" relative="1" as="geometry">
                        <mxPoint x="430" y="170" as="sourcePoint"/>
                        <mxPoint x="240" y="310" as="targetPoint"/>
                    </mxGeometry>
                </mxCell>
                <mxCell id="OnPWleWcY83iw-MTE333-14" value="" style="endArrow=classic;html=1;rounded=0;" parent="v6kbZBv9k20OrkSfWxrl-1" edge="1">
                    <mxGeometry width="50" height="50" relative="1" as="geometry">
                        <mxPoint x="430" y="330" as="sourcePoint"/>
                        <mxPoint x="240" y="470" as="targetPoint"/>
                    </mxGeometry>
                </mxCell>
                <mxCell id="OnPWleWcY83iw-MTE333-15" value="詳細画面" style="shape=umlBoundary;whiteSpace=wrap;html=1;fillColor=#dae8fc;strokeColor=#6c8ebf;" parent="v6kbZBv9k20OrkSfWxrl-1" vertex="1">
                    <mxGeometry x="120" y="440" width="100" height="80" as="geometry"/>
                </mxCell>
                <mxCell id="OnPWleWcY83iw-MTE333-16" value="削除する" style="ellipse;shape=umlControl;whiteSpace=wrap;html=1;fillColor=#f8cecc;strokeColor=#b85450;" parent="v6kbZBv9k20OrkSfWxrl-1" vertex="1">
                    <mxGeometry x="440" y="440" width="70" height="80" as="geometry"/>
                </mxCell>
                <mxCell id="OnPWleWcY83iw-MTE333-17" value="" style="endArrow=classic;html=1;rounded=0;" parent="v6kbZBv9k20OrkSfWxrl-1" edge="1">
                    <mxGeometry width="50" height="50" relative="1" as="geometry">
                        <mxPoint x="240" y="479.58000000000004" as="sourcePoint"/>
                        <mxPoint x="435" y="479.2900000000001" as="targetPoint"/>
                    </mxGeometry>
                </mxCell>
                <mxCell id="OnPWleWcY83iw-MTE333-18" value="" style="endArrow=classic;html=1;rounded=0;startArrow=classic;startFill=1;" parent="v6kbZBv9k20OrkSfWxrl-1" edge="1">
                    <mxGeometry width="50" height="50" relative="1" as="geometry">
                        <mxPoint x="520" y="480" as="sourcePoint"/>
                        <mxPoint x="701" y="447" as="targetPoint"/>
                    </mxGeometry>
                </mxCell>
                <mxCell id="Zh2Cj3inboqu4xl2LD00-1" value="売上情報を&lt;br&gt;削除" style="edgeLabel;html=1;align=center;verticalAlign=middle;resizable=0;points=[];" parent="OnPWleWcY83iw-MTE333-18" vertex="1" connectable="0">
                    <mxGeometry x="0.1485" y="-1" relative="1" as="geometry">
                        <mxPoint as="offset"/>
                    </mxGeometry>
                </mxCell>
                <mxCell id="4vhspeQJZZZmmDjY5zOb-0" value="売上マスタ" style="rounded=0;whiteSpace=wrap;html=1;fillColor=#ffe6cc;strokeColor=#d79b00;fontStyle=1;fontSize=18;" parent="v6kbZBv9k20OrkSfWxrl-1" vertex="1">
                    <mxGeometry x="-150" y="71" width="190" height="60" as="geometry"/>
                </mxCell>
                <mxCell id="Zh2Cj3inboqu4xl2LD00-0" value="" style="curved=1;endArrow=classic;html=1;rounded=0;" parent="v6kbZBv9k20OrkSfWxrl-1" edge="1">
                    <mxGeometry width="50" height="50" relative="1" as="geometry">
                        <mxPoint x="520" y="460" as="sourcePoint"/>
                        <mxPoint x="509" y="201" as="targetPoint"/>
                        <Array as="points">
                            <mxPoint x="600" y="250"/>
                        </Array>
                    </mxGeometry>
                </mxCell>
                <mxCell id="Uj_ZNz6zT2jNDqRnv_fK-0" value="管理者&lt;br&gt;" style="shape=umlActor;verticalLabelPosition=bottom;verticalAlign=top;html=1;" parent="v6kbZBv9k20OrkSfWxrl-1" vertex="1">
                    <mxGeometry x="-70" y="280" width="30" height="60" as="geometry"/>
                </mxCell>
                <mxCell id="Uj_ZNz6zT2jNDqRnv_fK-1" value="" style="endArrow=classic;html=1;rounded=0;" parent="v6kbZBv9k20OrkSfWxrl-1" edge="1">
                    <mxGeometry width="50" height="50" relative="1" as="geometry">
                        <mxPoint x="-30" y="320" as="sourcePoint"/>
                        <mxPoint x="110" y="160" as="targetPoint"/>
                    </mxGeometry>
                </mxCell>
                <mxCell id="Uj_ZNz6zT2jNDqRnv_fK-2" value="「売上情報マスタ」を押下" style="edgeLabel;html=1;align=center;verticalAlign=middle;resizable=0;points=[];" parent="Uj_ZNz6zT2jNDqRnv_fK-1" vertex="1" connectable="0">
                    <mxGeometry x="0.1587" y="-2" relative="1" as="geometry">
                        <mxPoint as="offset"/>
                    </mxGeometry>
                </mxCell>
                <mxCell id="Uj_ZNz6zT2jNDqRnv_fK-3" value="" style="endArrow=classic;html=1;rounded=0;" parent="v6kbZBv9k20OrkSfWxrl-1" edge="1">
                    <mxGeometry width="50" height="50" relative="1" as="geometry">
                        <mxPoint x="-30" y="320" as="sourcePoint"/>
                        <mxPoint x="110" y="480" as="targetPoint"/>
                    </mxGeometry>
                </mxCell>
                <mxCell id="Uj_ZNz6zT2jNDqRnv_fK-4" value="「削除」を押下" style="edgeLabel;html=1;align=center;verticalAlign=middle;resizable=0;points=[];" parent="Uj_ZNz6zT2jNDqRnv_fK-3" vertex="1" connectable="0">
                    <mxGeometry x="0.2129" y="-2" relative="1" as="geometry">
                        <mxPoint as="offset"/>
                    </mxGeometry>
                </mxCell>
                <mxCell id="Uj_ZNz6zT2jNDqRnv_fK-5" value="" style="endArrow=classic;html=1;rounded=0;" parent="v6kbZBv9k20OrkSfWxrl-1" edge="1">
                    <mxGeometry width="50" height="50" relative="1" as="geometry">
                        <mxPoint x="-30" y="320" as="sourcePoint"/>
                        <mxPoint x="110" y="320" as="targetPoint"/>
                    </mxGeometry>
                </mxCell>
                <mxCell id="Uj_ZNz6zT2jNDqRnv_fK-6" value="売上情報を選択" style="edgeLabel;html=1;align=center;verticalAlign=middle;resizable=0;points=[];" parent="Uj_ZNz6zT2jNDqRnv_fK-5" vertex="1" connectable="0">
                    <mxGeometry x="0.3076" y="1" relative="1" as="geometry">
                        <mxPoint x="-22" y="1" as="offset"/>
                    </mxGeometry>
                </mxCell>
                <mxCell id="IeU3-2btQe3j1KXVmYVY-0" value="売上情報&lt;br&gt;モデル" style="ellipse;shape=umlEntity;whiteSpace=wrap;html=1;fillColor=#d5e8d4;strokeColor=#82b366;" vertex="1" parent="v6kbZBv9k20OrkSfWxrl-1">
                    <mxGeometry x="727" y="407" width="80" height="80" as="geometry"/>
                </mxCell>
                <mxCell id="IeU3-2btQe3j1KXVmYVY-1" value="" style="endArrow=classic;html=1;rounded=0;startArrow=classic;startFill=1;" edge="1" parent="v6kbZBv9k20OrkSfWxrl-1">
                    <mxGeometry width="50" height="50" relative="1" as="geometry">
                        <mxPoint x="534" y="172" as="sourcePoint"/>
                        <mxPoint x="717" y="261" as="targetPoint"/>
                    </mxGeometry>
                </mxCell>
                <mxCell id="IeU3-2btQe3j1KXVmYVY-2" value="商品情報&lt;br&gt;モデル" style="ellipse;shape=umlEntity;whiteSpace=wrap;html=1;fillColor=#d5e8d4;strokeColor=#82b366;" vertex="1" parent="v6kbZBv9k20OrkSfWxrl-1">
                    <mxGeometry x="727" y="314" width="80" height="80" as="geometry"/>
                </mxCell>
                <mxCell id="IeU3-2btQe3j1KXVmYVY-3" value="店舗情報&lt;br&gt;モデル" style="ellipse;shape=umlEntity;whiteSpace=wrap;html=1;fillColor=#d5e8d4;strokeColor=#82b366;" vertex="1" parent="v6kbZBv9k20OrkSfWxrl-1">
                    <mxGeometry x="727" y="221" width="80" height="80" as="geometry"/>
                </mxCell>
                <mxCell id="IeU3-2btQe3j1KXVmYVY-4" value="従業員情報&lt;br&gt;モデル" style="ellipse;shape=umlEntity;whiteSpace=wrap;html=1;fillColor=#d5e8d4;strokeColor=#82b366;" vertex="1" parent="v6kbZBv9k20OrkSfWxrl-1">
                    <mxGeometry x="727" y="128" width="80" height="80" as="geometry"/>
                </mxCell>
                <mxCell id="IeU3-2btQe3j1KXVmYVY-5" value="" style="endArrow=classic;html=1;rounded=0;startArrow=classic;startFill=1;" edge="1" parent="v6kbZBv9k20OrkSfWxrl-1">
                    <mxGeometry width="50" height="50" relative="1" as="geometry">
                        <mxPoint x="530" y="157" as="sourcePoint"/>
                        <mxPoint x="714" y="170" as="targetPoint"/>
                    </mxGeometry>
                </mxCell>
                <mxCell id="IeU3-2btQe3j1KXVmYVY-6" value="" style="endArrow=classic;html=1;rounded=0;startArrow=classic;startFill=1;" edge="1" parent="v6kbZBv9k20OrkSfWxrl-1">
                    <mxGeometry width="50" height="50" relative="1" as="geometry">
                        <mxPoint x="526" y="184" as="sourcePoint"/>
                        <mxPoint x="718" y="346" as="targetPoint"/>
                    </mxGeometry>
                </mxCell>
                <mxCell id="IeU3-2btQe3j1KXVmYVY-7" value="" style="endArrow=classic;html=1;rounded=0;startArrow=classic;startFill=1;" edge="1" parent="v6kbZBv9k20OrkSfWxrl-1">
                    <mxGeometry width="50" height="50" relative="1" as="geometry">
                        <mxPoint x="518" y="187" as="sourcePoint"/>
                        <mxPoint x="717" y="447" as="targetPoint"/>
                    </mxGeometry>
                </mxCell>
            </root>
        </mxGraphModel>
    </diagram>
</mxfile>